<svg xmlns="http://www.w3.org/2000/svg" width="260" height="55.211" viewBox="0 0 260 55.211">
  <g id="Layer_2" data-name="Layer 2" transform="translate(0 0.002)">
    <g id="Layer_1" data-name="Layer 1" transform="translate(0 -0.002)">
      <path id="Path_2" data-name="Path 2" d="M338.23,27.893l5.353-5.353L359.618,6.505a3.8,3.8,0,0,0,0-5.379h0a3.808,3.808,0,0,0-5.379,0l-15.7,15.7Z" transform="translate(-258.472 -0.011)" fill="#e03b3b"/>
      <path id="Path_3" data-name="Path 3" d="M343.7,95.54l15.837,15.837a3.759,3.759,0,0,1,0,5.318h0a3.773,3.773,0,0,1-5.315,0L338.38,100.855Z" transform="translate(-258.586 -73.01)" fill="#c11a1a"/>
      <path id="Path_4" data-name="Path 4" d="M489.936,71.68l-5.353,5.353L468.548,93.068a3.8,3.8,0,0,0,0,5.376h0a3.8,3.8,0,0,0,5.376,0l15.7-15.7Z" transform="translate(-357.207 -54.777)" fill="#2d5072"/>
      <path id="Path_5" data-name="Path 5" d="M485.267,22.255,469.43,6.415a3.756,3.756,0,0,1,0-5.315h0a3.756,3.756,0,0,1,5.315,0l15.837,15.837Z" transform="translate(-357.892 0.002)" fill="#184468"/>
      <path id="Path_6" data-name="Path 6" d="M424.762,64.46h6.7l-.818,4.03h-14l.641-3.183,7.855-6.11c1.849-1.438,2.389-2.285,2.389-3.287s-.771-1.667-2.181-1.667a4.248,4.248,0,0,0-3.339,1.8l-3.4-2.233a8.817,8.817,0,0,1,7.5-3.646c3.9,0,6.624,2.1,6.624,4.98,0,2.181-1,3.952-4.209,6.393Z" transform="translate(-318.4 -38.331)"/>
      <path id="Path_7" data-name="Path 7" d="M3.723,48.94h8.086c5.8,0,9.336,3,9.336,7.819,0,6.6-4.787,10.8-11.623,10.8H0ZM9.682,63.355c3.936,0,6.143-2.714,6.143-6.277,0-2.474-1.568-3.936-4.6-3.936H8.138L6.117,63.355Z" transform="translate(0 -37.399)"/>
      <path id="Path_8" data-name="Path 8" d="M104.695,65.74l-.877,4.542a8.705,8.705,0,0,0-1.144-.08,3.739,3.739,0,0,0-4.1,3.379L97.2,80.389H92.14l2.875-14.415H99.8l-.318,1.594A6.989,6.989,0,0,1,104.695,65.74Z" transform="translate(-70.412 -50.237)"/>
      <path id="Path_9" data-name="Path 9" d="M144.752,44.178h5.028l-2.872,14.415H141.88Zm.321-4.1a2.948,2.948,0,0,1,3.245-2.872c1.783,0,2.926,1.035,2.926,2.419a2.972,2.972,0,0,1-3.273,2.952A2.61,2.61,0,0,1,145.073,40.082Z" transform="translate(-108.423 -28.435)"/>
      <path id="Path_10" data-name="Path 10" d="M198.21,66.76l-8.805,14.415h-5.24L181.1,66.76h5l1.754,8.829L193.2,66.76Z" transform="translate(-138.395 -51.017)"/>
      <path id="Path_11" data-name="Path 11" d="M262.873,74.431H252.287c.186,1.594,1.276,2.339,3.271,2.339a5.572,5.572,0,0,0,3.485-1.179l2.1,3.172A10.212,10.212,0,0,1,255,80.626c-4.629,0-7.659-2.554-7.659-6.57,0-4.789,3.537-8.326,8.725-8.326,4.388,0,7.1,2.554,7.1,6.332A10.986,10.986,0,0,1,262.873,74.431Zm-10.293-2.66h5.931c.026-1.545-1.063-2.441-2.686-2.441A3.27,3.27,0,0,0,252.58,71.771Z" transform="translate(-189.015 -50.23)"/>
      <path id="Path_12" data-name="Path 12" d="M589.07,64.71l2.075-3.936a11.694,11.694,0,0,0,6.2,1.835c2.021,0,3.19-.639,3.19-1.651,0-2.5-9.043-1.118-9.043-6.971,0-4.009,3.431-6.647,8.937-6.647a13.02,13.02,0,0,1,6.7,1.594l-1.915,3.912a9.579,9.579,0,0,0-5.108-1.415c-2.181,0-3.351.8-3.351,1.809-.028,2.561,9.039,1.094,9.039,6.843,0,3.99-3.511,6.624-8.961,6.624A14.521,14.521,0,0,1,589.07,64.71Z" transform="translate(-450.161 -36.176)"/>
      <path id="Path_13" data-name="Path 13" d="M685.879,66.76l-2.872,14.415h-4.789l.292-1.49a6.483,6.483,0,0,1-4.48,1.731c-3.065,0-5.159-1.677-5.159-4.921a8.735,8.735,0,0,1,.186-1.783l1.6-7.952h5.053l-1.49,7.473a4.587,4.587,0,0,0-.106.986,1.7,1.7,0,0,0,1.943,1.886c1.7,0,2.9-1.038,3.325-3.216l1.436-7.129Z" transform="translate(-511.143 -51.017)"/>
      <path id="Path_14" data-name="Path 14" d="M744.49,74.066c0-4.761,3.723-8.326,8.935-8.326,3.273,0,5.747,1.436,6.839,3.91L755.953,71.7a2.811,2.811,0,0,0-2.792-1.915c-2.049,0-3.537,1.622-3.537,3.988a2.583,2.583,0,0,0,2.83,2.794,3.342,3.342,0,0,0,3.113-1.886l3.7,2.235a8.014,8.014,0,0,1-7.155,3.723C747.494,80.636,744.49,78.028,744.49,74.066Z" transform="translate(-568.931 -50.237)"/>
      <path id="Path_15" data-name="Path 15" d="M811.71,74.066c0-4.761,3.723-8.326,8.935-8.326,3.273,0,5.747,1.436,6.839,3.91L823.173,71.7a2.811,2.811,0,0,0-2.792-1.915c-2.049,0-3.537,1.622-3.537,3.988a2.584,2.584,0,0,0,2.83,2.794,3.342,3.342,0,0,0,3.113-1.886l3.7,2.235a8.016,8.016,0,0,1-7.157,3.723C814.714,80.636,811.71,78.028,811.71,74.066Z" transform="translate(-620.3 -50.237)"/>
      <path id="Path_16" data-name="Path 16" d="M894.573,74.431h-10.59c.186,1.594,1.276,2.339,3.271,2.339a5.563,5.563,0,0,0,3.485-1.179l2.106,3.172a10.213,10.213,0,0,1-6.145,1.863c-4.627,0-7.659-2.554-7.659-6.57,0-4.789,3.537-8.326,8.725-8.326,4.391,0,7.1,2.554,7.1,6.332a10.848,10.848,0,0,1-.295,2.37Zm-10.293-2.66h5.931c.026-1.545-1.063-2.441-2.691-2.441A3.268,3.268,0,0,0,884.28,71.771Z" transform="translate(-671.753 -50.23)"/>
      <path id="Path_17" data-name="Path 17" d="M966.586,74.408H956.006c.186,1.594,1.278,2.339,3.273,2.339a5.56,5.56,0,0,0,3.483-1.179l2.1,3.165a10.194,10.194,0,0,1-6.131,1.863c-4.629,0-7.661-2.554-7.661-6.57,0-4.789,3.537-8.326,8.725-8.326,4.388,0,7.1,2.554,7.1,6.332a10.975,10.975,0,0,1-.311,2.377Zm-10.3-2.66h5.933c.026-1.545-1.063-2.441-2.681-2.441A3.274,3.274,0,0,0,956.291,71.749Z" transform="translate(-726.798 -50.207)"/>
      <path id="Path_18" data-name="Path 18" d="M1041.987,44.185l-3.936,19.735h-4.789l.295-1.415a5.919,5.919,0,0,1-4.176,1.651c-3.113,0-6.091-2.358-6.091-6.57a7.993,7.993,0,0,1,7.845-8.326,5,5,0,0,1,4.388,1.915l1.415-6.994Zm-7.421,11.89a2.528,2.528,0,0,0-2.712-2.766c-2.021,0-3.431,1.622-3.431,4.042a2.509,2.509,0,0,0,2.712,2.74c2.021,0,3.431-1.622,3.431-4.016Z" transform="translate(-781.987 -33.762)"/>
      <path id="Path_19" data-name="Path 19" d="M579.957,170.54h4.336c3.5,0,5.44,1.886,5.44,4.716,0,4.072-2.853,6.959-7.275,6.959H577.62Zm2.551,10.911c3.905,0,6.367-2.568,6.367-6.157,0-2.4-1.535-3.988-4.671-3.988h-3.537l-2.035,10.14Z" transform="translate(-441.411 -130.324)"/>
      <path id="Path_20" data-name="Path 20" d="M640.751,182.85l-.151.818c-.1,0-.165-.017-.266-.017-1.969,0-3.271,1.179-3.738,3.5l-.9,4.48h-.835l1.736-8.711h.818l-.368,1.837A3.971,3.971,0,0,1,640.751,182.85Z" transform="translate(-485.153 -139.732)"/>
      <path id="Path_21" data-name="Path 21" d="M663.846,171.888h.832l-1.733,8.711h-.835Zm.283-2.735a.729.729,0,0,1,.733-.733.634.634,0,0,1,.651.615.724.724,0,0,1-.75.736.62.62,0,0,1-.634-.618Z" transform="translate(-505.978 -128.704)"/>
      <path id="Path_22" data-name="Path 22" d="M689.413,183.13l-5.659,8.711H682.9l-2.2-8.711h.851l1.934,7.794,5.039-7.794Z" transform="translate(-520.184 -139.946)"/>
      <path id="Path_23" data-name="Path 23" d="M719.676,171.888h.832l-1.736,8.711h-.832Zm.283-2.735a.729.729,0,0,1,.733-.733.634.634,0,0,1,.651.615.724.724,0,0,1-.75.736.62.62,0,0,1-.634-.618Z" transform="translate(-548.642 -128.704)"/>
      <path id="Path_24" data-name="Path 24" d="M745.311,185.607a4.747,4.747,0,0,1-.1.943l-1,5.039h-.83l1-5.039a3.768,3.768,0,0,0,.082-.835c0-1.351-.818-2.153-2.452-2.153a3.681,3.681,0,0,0-3.82,3.287l-.943,4.74H736.4l1.736-8.711h.818l-.335,1.651a4.23,4.23,0,0,1,3.606-1.719C744.227,182.819,745.311,183.888,745.311,185.607Z" transform="translate(-562.749 -139.701)"/>
      <path id="Path_25" data-name="Path 25" d="M791.547,182.954l-1.552,7.782c-.585,2.985-2.153,4.245-4.952,4.245a5.155,5.155,0,0,1-3.773-1.37L781.8,193a4.378,4.378,0,0,0,3.3,1.233,3.652,3.652,0,0,0,4.037-3.353l.267-1.3a4.622,4.622,0,0,1-3.773,1.785c-2.318,0-3.8-1.318-3.8-3.469a4.835,4.835,0,0,1,4.952-4.99c1.8,0,3.1.785,3.518,2.285l.434-2.219Zm-1.634,3.438c0-1.736-1.153-2.754-3.12-2.754a4.039,4.039,0,0,0-4.122,4.2c0,1.736,1.167,2.754,3.12,2.754A4.034,4.034,0,0,0,789.912,186.392Z" transform="translate(-597.038 -139.77)"/>
      <path id="Path_26" data-name="Path 26" d="M848.06,180.46l.45-.651a5.158,5.158,0,0,0,3.738,1.453c2.186,0,3.7-.917,3.7-2.594,0-2.87-6.174-1.453-6.174-5.056,0-2.2,1.919-3.452,4.521-3.452a6.054,6.054,0,0,1,3.521,1.016l-.4.707a5.188,5.188,0,0,0-3.153-.967c-2.151,0-3.636.983-3.636,2.62-.017,2.919,6.173,1.535,6.173,5.039,0,2.235-1.985,3.436-4.622,3.436A5.669,5.669,0,0,1,848.06,180.46Z" transform="translate(-648.079 -130.034)"/>
      <path id="Path_27" data-name="Path 27" d="M893.06,188.073a4.943,4.943,0,0,1,5.006-5.223,3.51,3.51,0,0,1,3.3,1.634l-.684.417a2.869,2.869,0,0,0-2.669-1.3,4.152,4.152,0,0,0-4.12,4.421c0,1.853,1.134,2.922,3.153,2.922a3.684,3.684,0,0,0,2.886-1.269l.585.472a4.464,4.464,0,0,1-3.537,1.552C894.562,191.693,893.06,190.276,893.06,188.073Z" transform="translate(-682.467 -139.732)"/>
      <path id="Path_28" data-name="Path 28" d="M941.209,173.938a4.738,4.738,0,0,1-.1.943l-1,5.039h-.835l1-5.039a3.776,3.776,0,0,0,.083-.835c0-1.351-.818-2.153-2.452-2.153a3.682,3.682,0,0,0-3.82,3.287l-.943,4.74h-.832l2.469-12.38h.835l-1.061,5.3a4.156,4.156,0,0,1,3.57-1.686C940.125,171.15,941.209,172.218,941.209,173.938Z" transform="translate(-712.462 -128.032)"/>
      <path id="Path_29" data-name="Path 29" d="M979.39,188.073a4.958,4.958,0,0,1,4.99-5.223c2.358,0,3.853,1.4,3.853,3.62a4.947,4.947,0,0,1-4.987,5.223C980.892,191.693,979.39,190.276,979.39,188.073Zm8.018-1.552c0-1.853-1.134-2.922-3.087-2.922a4.135,4.135,0,0,0-4.087,4.421c0,1.853,1.134,2.922,3.087,2.922a4.127,4.127,0,0,0,4.077-4.421Z" transform="translate(-748.44 -139.732)"/>
      <path id="Path_30" data-name="Path 30" d="M1023.26,188.073a4.958,4.958,0,0,1,4.99-5.223c2.358,0,3.853,1.4,3.853,3.62a4.947,4.947,0,0,1-4.987,5.223C1024.762,191.693,1023.26,190.276,1023.26,188.073Zm8.018-1.552c0-1.853-1.134-2.922-3.087-2.922a4.135,4.135,0,0,0-4.087,4.421c0,1.853,1.134,2.922,3.087,2.922a4.127,4.127,0,0,0,4.077-4.421Z" transform="translate(-781.965 -139.732)"/>
      <path id="Path_31" data-name="Path 31" d="M1070.169,167.57H1071l-2.469,12.38h-.835Z" transform="translate(-815.925 -128.055)"/>
    </g>
  </g>
</svg>
