<svg xmlns="http://www.w3.org/2000/svg" width="264.083" height="56.077" viewBox="0 0 264.083 56.077">
  <g id="Layer_2" data-name="Layer 2" transform="translate(0 0.002)">
    <g id="Layer_1" data-name="Layer 1" transform="translate(0 -0.002)">
      <path id="Path_32" data-name="Path 32" d="M338.23,28.331l5.437-5.437L359.954,6.607a3.863,3.863,0,0,0,0-5.463h0a3.868,3.868,0,0,0-5.463,0L338.549,17.086Z" transform="translate(-257.219 -0.011)" fill="#e03b3b"/>
      <path id="Path_33" data-name="Path 33" d="M343.781,95.54l16.086,16.086a3.818,3.818,0,0,1,0,5.4h0a3.832,3.832,0,0,1-5.4,0L338.38,100.939Z" transform="translate(-257.333 -72.656)" fill="#c11a1a"/>
      <path id="Path_34" data-name="Path 34" d="M490.289,71.68l-5.437,5.437L468.565,93.4a3.859,3.859,0,0,0,0,5.461h0a3.859,3.859,0,0,0,5.461,0L489.97,82.92Z" transform="translate(-355.476 -54.511)" fill="#2d5072"/>
      <path id="Path_35" data-name="Path 35" d="M485.533,22.6,469.447,6.516a3.815,3.815,0,0,1,0-5.4h0a3.815,3.815,0,0,1,5.4,0L490.932,17.2Z" transform="translate(-356.157 0.002)" fill="#184468"/>
      <path id="Path_36" data-name="Path 36" d="M424.889,64.684H431.7l-.831,4.093H416.65l.652-3.233,7.978-6.206c1.878-1.461,2.426-2.321,2.426-3.339s-.783-1.693-2.215-1.693a4.315,4.315,0,0,0-3.392,1.825l-3.449-2.268a8.956,8.956,0,0,1,7.614-3.7c3.964,0,6.728,2.136,6.728,5.059,0,2.216-1.018,4.014-4.275,6.493Z" transform="translate(-316.857 -38.146)" fill="#fff"/>
      <path id="Path_37" data-name="Path 37" d="M3.782,48.94h8.213c5.89,0,9.482,3.051,9.482,7.942,0,6.706-4.862,10.967-11.806,10.967H0ZM9.834,63.581c4,0,6.239-2.757,6.239-6.376,0-2.512-1.593-4-4.673-4H8.266L6.213,63.581Z" transform="translate(0 -37.218)" fill="#fff"/>
      <path id="Path_38" data-name="Path 38" d="M104.892,65.74,104,70.353a8.844,8.844,0,0,0-1.162-.081,3.8,3.8,0,0,0-4.16,3.432l-1.4,6.915H92.14l2.92-14.641h4.862L99.6,67.6A7.1,7.1,0,0,1,104.892,65.74Z" transform="translate(-70.071 -49.994)" fill="#fff"/>
      <path id="Path_39" data-name="Path 39" d="M144.8,44.288H149.9l-2.917,14.641H141.88Zm.326-4.16a3,3,0,0,1,3.3-2.917c1.811,0,2.972,1.051,2.972,2.457a3.019,3.019,0,0,1-3.324,3A2.651,2.651,0,0,1,145.123,40.127Z" transform="translate(-107.898 -28.297)" fill="#fff"/>
      <path id="Path_40" data-name="Path 40" d="M198.479,66.76,189.536,81.4h-5.322L181.1,66.76h5.08l1.782,8.967,5.43-8.967Z" transform="translate(-137.724 -50.77)" fill="#fff"/>
      <path id="Path_41" data-name="Path 41" d="M263.117,74.568H252.365c.189,1.619,1.3,2.376,3.322,2.376a5.66,5.66,0,0,0,3.54-1.2l2.134,3.221a10.373,10.373,0,0,1-6.242,1.892c-4.7,0-7.779-2.594-7.779-6.673,0-4.865,3.593-8.457,8.862-8.457,4.457,0,7.214,2.594,7.214,6.431a11.155,11.155,0,0,1-.3,2.407Zm-10.455-2.7h6.024c.026-1.569-1.08-2.479-2.728-2.479A3.321,3.321,0,0,0,252.662,71.866Z" transform="translate(-188.099 -49.986)" fill="#fff"/>
      <path id="Path_42" data-name="Path 42" d="M589.07,64.983l2.108-4a11.878,11.878,0,0,0,6.294,1.863c2.053,0,3.241-.649,3.241-1.677,0-2.541-9.185-1.135-9.185-7.08,0-4.072,3.485-6.752,9.078-6.752a13.224,13.224,0,0,1,6.809,1.619l-1.945,3.974a9.729,9.729,0,0,0-5.188-1.437c-2.216,0-3.4.81-3.4,1.837-.029,2.6,9.181,1.111,9.181,6.951,0,4.053-3.566,6.728-9.1,6.728A14.749,14.749,0,0,1,589.07,64.983Z" transform="translate(-447.98 -36.001)" fill="#fff"/>
      <path id="Path_43" data-name="Path 43" d="M686.146,66.76,683.229,81.4h-4.865l.3-1.514a6.584,6.584,0,0,1-4.551,1.758c-3.114,0-5.241-1.7-5.241-5a8.857,8.857,0,0,1,.189-1.811l1.621-8.076h5.133L674.3,74.35a4.664,4.664,0,0,0-.108,1,1.731,1.731,0,0,0,1.974,1.916c1.727,0,2.944-1.054,3.377-3.267L681,66.76Z" transform="translate(-508.666 -50.77)" fill="#fff"/>
      <path id="Path_44" data-name="Path 44" d="M744.49,74.2c0-4.836,3.782-8.457,9.075-8.457,3.324,0,5.837,1.459,6.946,3.971l-4.378,2.079a2.855,2.855,0,0,0-2.836-1.945c-2.081,0-3.593,1.648-3.593,4.05a2.624,2.624,0,0,0,2.874,2.838,3.4,3.4,0,0,0,3.162-1.916l3.756,2.271a8.14,8.14,0,0,1-7.267,3.782C747.541,80.87,744.49,78.221,744.49,74.2Z" transform="translate(-566.174 -49.994)" fill="#fff"/>
      <path id="Path_45" data-name="Path 45" d="M811.71,74.2c0-4.836,3.782-8.457,9.075-8.457,3.324,0,5.837,1.459,6.946,3.971l-4.378,2.079a2.855,2.855,0,0,0-2.836-1.945c-2.081,0-3.593,1.648-3.593,4.05a2.625,2.625,0,0,0,2.874,2.838,3.4,3.4,0,0,0,3.161-1.916l3.756,2.271a8.141,8.141,0,0,1-7.269,3.782C814.761,80.87,811.71,78.221,811.71,74.2Z" transform="translate(-617.294 -49.994)" fill="#fff"/>
      <path id="Path_46" data-name="Path 46" d="M894.817,74.568H884.06c.189,1.619,1.3,2.376,3.322,2.376a5.65,5.65,0,0,0,3.54-1.2l2.139,3.221a10.373,10.373,0,0,1-6.242,1.892c-4.7,0-7.779-2.594-7.779-6.673,0-4.865,3.593-8.457,8.862-8.457,4.46,0,7.214,2.594,7.214,6.431a11.014,11.014,0,0,1-.3,2.407Zm-10.455-2.7h6.024c.026-1.569-1.08-2.479-2.733-2.479A3.32,3.32,0,0,0,884.362,71.866Z" transform="translate(-668.498 -49.986)" fill="#fff"/>
      <path id="Path_47" data-name="Path 47" d="M966.83,74.545H956.083c.189,1.619,1.3,2.376,3.324,2.376a5.648,5.648,0,0,0,3.538-1.2l2.134,3.214a10.354,10.354,0,0,1-6.227,1.892c-4.7,0-7.782-2.594-7.782-6.673,0-4.865,3.593-8.457,8.862-8.457,4.457,0,7.214,2.594,7.214,6.431A11.158,11.158,0,0,1,966.83,74.545Zm-10.457-2.7H962.4c.026-1.569-1.08-2.479-2.723-2.479A3.326,3.326,0,0,0,956.373,71.844Z" transform="translate(-723.276 -49.964)" fill="#fff"/>
      <path id="Path_48" data-name="Path 48" d="M1042.281,44.185l-4,20.045h-4.865l.3-1.437a6.012,6.012,0,0,1-4.242,1.677c-3.162,0-6.187-2.4-6.187-6.673a8.119,8.119,0,0,1,7.969-8.457,5.074,5.074,0,0,1,4.457,1.945l1.437-7.1Zm-7.537,12.076a2.568,2.568,0,0,0-2.754-2.809c-2.053,0-3.485,1.648-3.485,4.105a2.548,2.548,0,0,0,2.754,2.783c2.053,0,3.485-1.648,3.485-4.079Z" transform="translate(-778.198 -33.598)" fill="#fff"/>
      <path id="Path_49" data-name="Path 49" d="M579.994,170.54h4.4c3.559,0,5.526,1.916,5.526,4.79,0,4.136-2.9,7.068-7.389,7.068H577.62Zm2.592,11.082c3.966,0,6.467-2.608,6.467-6.254,0-2.438-1.559-4.05-4.745-4.05h-3.593l-2.067,10.3Z" transform="translate(-439.272 -129.693)" fill="#fff"/>
      <path id="Path_50" data-name="Path 50" d="M640.843,182.85l-.153.831c-.1,0-.168-.017-.271-.017-2,0-3.322,1.2-3.8,3.559l-.915,4.551h-.848l1.763-8.848h.831l-.374,1.866A4.034,4.034,0,0,1,640.843,182.85Z" transform="translate(-482.802 -139.055)" fill="#fff"/>
      <path id="Path_51" data-name="Path 51" d="M663.873,171.943h.845l-1.76,8.848h-.848Zm.287-2.778a.74.74,0,0,1,.745-.745.644.644,0,0,1,.661.625.735.735,0,0,1-.762.747.63.63,0,0,1-.644-.628Z" transform="translate(-503.526 -128.08)" fill="#fff"/>
      <path id="Path_52" data-name="Path 52" d="M689.55,183.13l-5.748,8.848h-.865L680.7,183.13h.865l1.964,7.916,5.118-7.916Z" transform="translate(-517.663 -139.267)" fill="#fff"/>
      <path id="Path_53" data-name="Path 53" d="M719.7,171.943h.845l-1.763,8.848h-.845Zm.287-2.778a.74.74,0,0,1,.745-.745.644.644,0,0,1,.661.625.735.735,0,0,1-.762.747.63.63,0,0,1-.644-.628Z" transform="translate(-545.984 -128.08)" fill="#fff"/>
      <path id="Path_54" data-name="Path 54" d="M745.451,185.651a4.814,4.814,0,0,1-.1.958l-1.016,5.118h-.843l1.018-5.118a3.831,3.831,0,0,0,.084-.848c0-1.372-.831-2.187-2.491-2.187a3.739,3.739,0,0,0-3.88,3.339l-.958,4.814H736.4l1.763-8.848h.831l-.34,1.677a4.3,4.3,0,0,1,3.662-1.746C744.349,182.82,745.451,183.9,745.451,185.651Z" transform="translate(-560.022 -139.024)" fill="#fff"/>
      <path id="Path_55" data-name="Path 55" d="M791.708,182.955l-1.576,7.9c-.594,3.032-2.187,4.311-5.03,4.311a5.236,5.236,0,0,1-3.832-1.392l.541-.625a4.446,4.446,0,0,0,3.353,1.253,3.709,3.709,0,0,0,4.1-3.406l.271-1.322a4.694,4.694,0,0,1-3.832,1.813c-2.354,0-3.863-1.339-3.863-3.523a4.911,4.911,0,0,1,5.03-5.068c1.83,0,3.152.8,3.574,2.321l.441-2.254Zm-1.66,3.492c0-1.763-1.171-2.8-3.169-2.8a4.1,4.1,0,0,0-4.187,4.271c0,1.763,1.186,2.8,3.169,2.8A4.1,4.1,0,0,0,790.048,186.447Z" transform="translate(-594.145 -139.093)" fill="#fff"/>
      <path id="Path_56" data-name="Path 56" d="M848.06,180.622l.457-.661a5.239,5.239,0,0,0,3.8,1.475c2.22,0,3.763-.932,3.763-2.635,0-2.915-6.27-1.475-6.27-5.135,0-2.237,1.95-3.506,4.591-3.506a6.15,6.15,0,0,1,3.576,1.032l-.407.719a5.27,5.27,0,0,0-3.2-.982c-2.184,0-3.693,1-3.693,2.661-.017,2.965,6.271,1.559,6.271,5.118,0,2.271-2.017,3.49-4.695,3.49A5.758,5.758,0,0,1,848.06,180.622Z" transform="translate(-644.938 -129.404)" fill="#fff"/>
      <path id="Path_57" data-name="Path 57" d="M893.06,188.155a5.02,5.02,0,0,1,5.085-5.305,3.565,3.565,0,0,1,3.353,1.66l-.695.424a2.914,2.914,0,0,0-2.711-1.322,4.218,4.218,0,0,0-4.184,4.491c0,1.883,1.152,2.968,3.2,2.968a3.741,3.741,0,0,0,2.932-1.289l.594.479a4.535,4.535,0,0,1-3.593,1.576C894.586,191.832,893.06,190.392,893.06,188.155Z" transform="translate(-679.16 -139.055)" fill="#fff"/>
      <path id="Path_58" data-name="Path 58" d="M941.349,174.038a4.818,4.818,0,0,1-.1.958l-1.015,5.118h-.848L940.4,175a3.831,3.831,0,0,0,.084-.848c0-1.372-.831-2.187-2.491-2.187a3.74,3.74,0,0,0-3.88,3.339l-.958,4.814h-.846l2.508-12.574h.848l-1.078,5.379a4.221,4.221,0,0,1,3.626-1.713C940.247,171.207,941.349,172.292,941.349,174.038Z" transform="translate(-709.009 -127.411)" fill="#fff"/>
      <path id="Path_59" data-name="Path 59" d="M979.39,188.155a5.036,5.036,0,0,1,5.068-5.305c2.4,0,3.914,1.423,3.914,3.677a5.024,5.024,0,0,1-5.066,5.305C980.916,191.832,979.39,190.392,979.39,188.155Zm8.143-1.576c0-1.883-1.152-2.968-3.135-2.968a4.2,4.2,0,0,0-4.151,4.491c0,1.883,1.152,2.968,3.135,2.968a4.192,4.192,0,0,0,4.141-4.491Z" transform="translate(-744.813 -139.055)" fill="#fff"/>
      <path id="Path_60" data-name="Path 60" d="M1023.26,188.155a5.036,5.036,0,0,1,5.068-5.305c2.4,0,3.914,1.423,3.914,3.677a5.024,5.024,0,0,1-5.066,5.305C1024.786,191.832,1023.26,190.392,1023.26,188.155Zm8.144-1.576c0-1.883-1.152-2.968-3.135-2.968a4.2,4.2,0,0,0-4.151,4.491c0,1.883,1.152,2.968,3.135,2.968a4.192,4.192,0,0,0,4.141-4.491Z" transform="translate(-778.175 -139.055)" fill="#fff"/>
      <path id="Path_61" data-name="Path 61" d="M1070.208,167.57h.848l-2.508,12.574h-.848Z" transform="translate(-811.971 -127.434)" fill="#fff"/>
    </g>
  </g>
</svg>
