<svg xmlns="http://www.w3.org/2000/svg" xmlns:xlink="http://www.w3.org/1999/xlink" width="207" height="241" viewBox="0 0 207 241">
  <defs>
    <filter id="Rectangle_18" x="0" y="0" width="207" height="205" filterUnits="userSpaceOnUse">
      <feOffset dx="2" dy="4" input="SourceAlpha"/>
      <feGaussianBlur stdDeviation="3" result="blur"/>
      <feFlood flood-opacity="0.161"/>
      <feComposite operator="in" in2="blur"/>
      <feComposite in="SourceGraphic"/>
    </filter>
  </defs>
  <g id="Component_13_1" data-name="Component 13 – 1" transform="translate(7 5)">
    <g transform="matrix(1, 0, 0, 1, -7, -5)" filter="url(#Rectangle_18)">
      <rect id="Rectangle_18-2" data-name="Rectangle 18" width="189" height="187" rx="28" transform="translate(7 5)" fill="#fff"/>
    </g>
    <g id="car" transform="translate(37.5 41.624)">
      <g id="Group_5" data-name="Group 5" transform="translate(-0.001 31.876)">
        <path id="Path_63" data-name="Path 63" d="M18.369,52.156a8.562,8.562,0,0,0-8.562,8.562,8.316,8.316,0,0,0,.076,1.075,8.555,8.555,0,0,0,17.011-.346c.019-.24.036-.484.036-.73A8.559,8.559,0,0,0,18.369,52.156Zm-4.286,5.336,1.745,1.746a2.956,2.956,0,0,0-.311.752h-2.46A5.288,5.288,0,0,1,14.083,57.492Zm-1.038,3.981h2.48a2.87,2.87,0,0,0,.311.743l-1.75,1.748A5.357,5.357,0,0,1,13.046,61.472Zm4.582,4.564a5.333,5.333,0,0,1-2.483-1.031l1.74-1.741a2.947,2.947,0,0,0,.743.3Zm0-8.166a2.974,2.974,0,0,0-.757.315l-1.744-1.744a5.32,5.32,0,0,1,2.5-1.034Zm1.482-2.465a5.329,5.329,0,0,1,2.5,1.035l-1.743,1.744a2.974,2.974,0,0,0-.757-.315V55.405Zm0,10.629V63.567a2.925,2.925,0,0,0,.742-.3l1.741,1.741A5.335,5.335,0,0,1,19.111,66.034Zm3.545-2.063L20.9,62.214a2.893,2.893,0,0,0,.319-.741h2.46A5.341,5.341,0,0,1,22.655,63.972ZM21.222,59.99a3,3,0,0,0-.311-.752l1.747-1.746a5.344,5.344,0,0,1,1.025,2.5H21.222Z" transform="translate(1.437 -28.906)" fill="#2d5072"/>
        <path id="Path_64" data-name="Path 64" d="M80.378,52.156a8.562,8.562,0,0,0-8.562,8.562,8.314,8.314,0,0,0,.076,1.075A8.555,8.555,0,0,0,88.9,61.447c.019-.24.036-.484.036-.73A8.558,8.558,0,0,0,80.378,52.156Zm-4.285,5.336,1.744,1.746a2.957,2.957,0,0,0-.311.752h-2.46A5.3,5.3,0,0,1,76.092,57.492Zm-1.036,3.981h2.48a2.87,2.87,0,0,0,.311.743L76.1,63.963A5.311,5.311,0,0,1,75.056,61.472Zm4.581,4.564a5.333,5.333,0,0,1-2.483-1.031l1.74-1.741a2.946,2.946,0,0,0,.743.3Zm0-8.166a2.974,2.974,0,0,0-.757.315l-1.744-1.744a5.315,5.315,0,0,1,2.5-1.034Zm1.484-2.465a5.329,5.329,0,0,1,2.5,1.035l-1.744,1.744a2.894,2.894,0,0,0-.757-.315V55.405Zm0,10.629V63.567a2.925,2.925,0,0,0,.742-.3L83.6,65.006A5.34,5.34,0,0,1,81.121,66.034Zm3.544-2.063-1.755-1.755a2.861,2.861,0,0,0,.319-.742h2.46A5.33,5.33,0,0,1,84.664,63.972ZM83.231,59.99a2.956,2.956,0,0,0-.311-.752l1.746-1.746a5.346,5.346,0,0,1,1.026,2.5H83.231Z" transform="translate(10.519 -28.906)" fill="#2d5072"/>
        <path id="Path_65" data-name="Path 65" d="M111.455,50.694V44.359a2.063,2.063,0,0,0-1.747-2.04,84.34,84.34,0,0,1-8.621-1.685c-2.758-.851-13.416-5.363-17.106-6.21s-20.336-5.371-36.278.155c-2.7.934-14.833,6.736-21.969,9.752-2.1.046-22.9,4.382-24.009,7.353A48.06,48.06,0,0,0,.065,56.853a12.188,12.188,0,0,0,1.545,6.879c1.575.891,4.608,1.489,8.114,1.891-.04-.214-.084-.425-.111-.642a9.86,9.86,0,0,1-.089-1.29,10.282,10.282,0,1,1,20.563,0c0,.291-.019.58-.041.864a10.006,10.006,0,0,1-.335,1.849h.028l51.036-1.027c-.023-.132-.053-.263-.07-.4a9.82,9.82,0,0,1-.089-1.29,10.282,10.282,0,0,1,20.564,0c0,.022,0,.04,0,.061l.218-.018,8.726-1.643s3.342-1.779,3.342-6.675A5.887,5.887,0,0,0,111.455,50.694ZM60.828,44.688l-19.06.584c.351-2.856-1.34-3.5-1.34-3.5,7.577-6.878,22.848-7.11,22.848-7.11Zm21.391-.872L64.85,44.4l1.574-9.734c8.977-.117,14.105,1.864,14.105,1.864l2.565,4.139Zm9.792-.06H87.172l-4.838-6.644c3.63,1.445,6.535,2.868,8.265,3.768A2.7,2.7,0,0,1,92.011,43.756Z" transform="translate(0.001 -31.876)" fill="#2d5072"/>
      </g>
    </g>
  </g>
</svg>
