<svg xmlns="http://www.w3.org/2000/svg" width="193" height="193" viewBox="0 0 193 193">
  <g id="Ellipse_158" data-name="Ellipse 158" fill="#fff" stroke="#707070" stroke-width="1">
    <circle cx="96.5" cy="96.5" r="96.5" stroke="none"/>
    <circle cx="96.5" cy="96.5" r="96" fill="none"/>
  </g>
  <g id="customer" transform="translate(44 44)">
    <g id="Group_70" data-name="Group 70" transform="translate(0 45.887)">
      <g id="Group_69" data-name="Group 69">
        <path id="Path_314" data-name="Path 314" d="M96.432,239.192a8.745,8.745,0,0,0-12.042.727l-8.572,9.2a8.765,8.765,0,0,0-8.356-6.155h-15.3c-1.161,0-1.549-.443-3.566-2a20.456,20.456,0,0,0-26.9.064l-5.622,4.95a8.713,8.713,0,0,0-8.02-.1l-6.449,3.223a2.919,2.919,0,0,0-1.3,3.914l17.5,34.994a2.919,2.919,0,0,0,3.914,1.3l6.449-3.225A8.742,8.742,0,0,0,33,277.96H67.462A20.511,20.511,0,0,0,83.793,269.8l14-18.668A8.725,8.725,0,0,0,96.432,239.192ZM25.558,280.876l-3.84,1.921L6.829,253.019,10.67,251.1a2.915,2.915,0,0,1,3.912,1.3l12.281,24.562A2.916,2.916,0,0,1,25.558,280.876Zm67.568-33.248-14,18.667a14.648,14.648,0,0,1-11.665,5.832h-36.5L20.037,250.27l5.519-4.858a14.617,14.617,0,0,1,19.266,0c3.235,2.848,5.247,3.387,7.343,3.387h15.3a2.916,2.916,0,0,1,0,5.832H52.568a2.916,2.916,0,1,0,0,5.832H69.416a8.773,8.773,0,0,0,6.4-2.786L88.657,243.9a2.916,2.916,0,0,1,4.469,3.733Z" transform="translate(0 -235.959)" fill="#184468"/>
      </g>
    </g>
    <g id="Group_72" data-name="Group 72" transform="translate(35.19 0.013)">
      <g id="Group_71" data-name="Group 71" transform="translate(0 0)">
        <path id="Path_315" data-name="Path 315" d="M207.123,19.913a11.618,11.618,0,0,0,3.227-8.041A11.824,11.824,0,0,0,198.686.013a12.017,12.017,0,0,0-11.859,11.859,11.448,11.448,0,0,0,3.334,8.064,17.791,17.791,0,0,0-9.167,15.46v2.916a2.917,2.917,0,0,0,2.916,2.916h29.356a2.917,2.917,0,0,0,2.916-2.916V35.4A17.777,17.777,0,0,0,207.123,19.913ZM198.686,5.846a6.012,6.012,0,0,1,5.832,6.027,5.839,5.839,0,0,1-5.832,5.832,6.012,6.012,0,0,1-6.027-5.832A6.186,6.186,0,0,1,198.686,5.846ZM186.826,35.4a12.017,12.017,0,0,1,11.859-11.859A11.776,11.776,0,0,1,210.35,35.4Z" transform="translate(-180.994 -0.013)" fill="#184468"/>
      </g>
    </g>
  </g>
</svg>
