<svg xmlns="http://www.w3.org/2000/svg" xmlns:xlink="http://www.w3.org/1999/xlink" width="207" height="241" viewBox="0 0 207 241">
  <defs>
    <filter id="Rectangle_21" x="0" y="0" width="207" height="205" filterUnits="userSpaceOnUse">
      <feOffset dx="2" dy="4" input="SourceAlpha"/>
      <feGaussianBlur stdDeviation="3" result="blur"/>
      <feFlood flood-opacity="0.161"/>
      <feComposite operator="in" in2="blur"/>
      <feComposite in="SourceGraphic"/>
    </filter>
  </defs>
  <g id="Component_16_1" data-name="Component 16 – 1" transform="translate(7 5)">
    <g transform="matrix(1, 0, 0, 1, -7, -5)" filter="url(#Rectangle_21)">
      <rect id="Rectangle_21-2" data-name="Rectangle 21" width="189" height="187" rx="28" transform="translate(7 5)" fill="#fff"/>
    </g>
    <g id="forklift-truck" transform="translate(58.5 65.873)">
      <g id="Group_6" data-name="Group 6" transform="translate(0 2.294)">
        <path id="Path_66" data-name="Path 66" d="M47.048,36.777S43.44,2.294,29.859,2.294H8.046V34.01H2.476c-5.57,0,0,19.715,0,19.715H5.933a9.257,9.257,0,0,1,18.492,0H35.7a1.145,1.145,0,0,1-.01-.131,9.857,9.857,0,0,1,19.715,0,10.122,10.122,0,0,1-.176,1.847h3.487L52.91,37.205C47.581,40.209,47.048,36.777,47.048,36.777ZM29.482,37.869l-5.143-9H13.194V7.442H28.938c4.6,0,7.14,6.406,8.469,11.785.845,3.437,3.447,15.921,3.678,18.648h-11.6Z" transform="translate(0 -2.294)" fill="#184468"/>
        <path id="Path_67" data-name="Path 67" d="M15.916,10.758a8.554,8.554,0,1,0,8.554,8.554A8.557,8.557,0,0,0,15.916,10.758Zm0,13.516a4.954,4.954,0,1,1,4.951-4.956A4.963,4.963,0,0,1,15.916,24.274Z" transform="translate(29.683 31.832)" fill="#184468"/>
        <path id="Path_68" data-name="Path 68" d="M9.484,11.069A8.129,8.129,0,1,0,17.611,19.2,8.135,8.135,0,0,0,9.484,11.069Zm0,12.836a4.71,4.71,0,1,1,4.7-4.7A4.707,4.707,0,0,1,9.484,23.905Z" transform="translate(5.455 33.086)" fill="#184468"/>
        <path id="Path_69" data-name="Path 69" d="M47.952,45.183a1.832,1.832,0,0,0-2.32-1.172L27.8,49.882,12.387,3.579a1.843,1.843,0,0,0-3.5,1.167l16,48.044a1.844,1.844,0,0,0,1.751,1.258,1.9,1.9,0,0,0,.574-.091L46.79,47.507A1.834,1.834,0,0,0,47.952,45.183Z" transform="translate(35.451 -2.175)" fill="#184468"/>
      </g>
    </g>
  </g>
</svg>
