<svg xmlns="http://www.w3.org/2000/svg" width="193" height="193" viewBox="0 0 193 193">
  <g id="Ellipse_159" data-name="Ellipse 159" fill="#fff" stroke="#707070" stroke-width="1">
    <circle cx="96.5" cy="96.5" r="96.5" stroke="none"/>
    <circle cx="96.5" cy="96.5" r="96" fill="none"/>
  </g>
    <g id="Group_74" data-name="Group 74" transform="translate(50 50)">
    <g id="Group_73" data-name="Group 73">
      <path id="Path_316" data-name="Path 316" d="M89.083,0H1.51A1.509,1.509,0,0,0,0,1.51V55.866a1.509,1.509,0,0,0,1.51,1.51h15.1v2.736a9.032,9.032,0,0,0-.945,15.034A13.6,13.6,0,0,0,7.549,87.573v1.51a1.509,1.509,0,0,0,1.51,1.51H81.533a1.509,1.509,0,0,0,1.51-1.51v-1.51a13.6,13.6,0,0,0-8.114-12.428,9.032,9.032,0,0,0-.945-15.034V57.375h15.1a1.509,1.509,0,0,0,1.51-1.51V1.51A1.509,1.509,0,0,0,89.083,0ZM15.1,67.945a6.04,6.04,0,1,1,6.04,6.04A6.046,6.046,0,0,1,15.1,67.945Zm-4.53,19.628a10.569,10.569,0,1,1,21.138,0ZM26.613,75.145a9.017,9.017,0,0,0,1.259-13.24H38.564a9.015,9.015,0,0,0,1.258,13.24,13.657,13.657,0,0,0-6.6,6.23A13.657,13.657,0,0,0,26.613,75.145Zm12.644-7.2a6.04,6.04,0,1,1,6.04,6.04A6.046,6.046,0,0,1,39.257,67.945Zm-4.53,19.628a10.569,10.569,0,1,1,21.138,0ZM50.771,75.145a9.017,9.017,0,0,0,1.259-13.24H62.722a9.015,9.015,0,0,0,1.258,13.24,13.657,13.657,0,0,0-6.6,6.23A13.657,13.657,0,0,0,50.771,75.145ZM80.024,87.573H58.885a10.569,10.569,0,1,1,21.138,0Zm-4.53-19.628a6.04,6.04,0,1,1-6.04-6.04A6.046,6.046,0,0,1,75.494,67.945Zm-3.02-21.138h-4.53v3.02h3.02v9.059H19.628V48.316a1.509,1.509,0,0,0-1.51-1.51h-4.53v-3.02H77v3.02ZM54.2,24.158a7.571,7.571,0,0,1,4.715,1.655l5.067,4.054a1.509,1.509,0,0,0,2.173-.3L72.8,20.254l3.613,2.709L69.008,33.151a4.529,4.529,0,0,1-6.562.817l-4.1-3.42a1.509,1.509,0,0,0-2.476,1.16v9.059H46.806V27.178h-3.02V40.767H34.727V31.707a1.509,1.509,0,0,0-2.476-1.16l-4.1,3.42a4.529,4.529,0,0,1-6.562-.817L14.176,22.962l3.613-2.709,6.651,9.311a1.509,1.509,0,0,0,2.173.3l5.067-4.054a7.566,7.566,0,0,1,4.714-1.655H54.2ZM39.257,15.1a6.04,6.04,0,1,1,6.04,6.04A6.046,6.046,0,0,1,39.257,15.1ZM87.573,54.356H73.984v-4.53h4.53a1.509,1.509,0,0,0,1.51-1.51v-6.04a1.509,1.509,0,0,0-1.51-1.51H58.885V34.931l1.626,1.356a7.548,7.548,0,0,0,10.938-1.359l8.285-11.391a1.509,1.509,0,0,0-.316-2.1l-6.04-4.53a1.509,1.509,0,0,0-2.133.331l-6.622,9.271L60.8,23.456a10.605,10.605,0,0,0-6.6-2.318H52.03a9.059,9.059,0,1,0-13.468,0H36.394a10.606,10.606,0,0,0-6.6,2.316L25.97,26.513l-6.624-9.272a1.509,1.509,0,0,0-2.133-.331l-6.04,4.53a1.509,1.509,0,0,0-.316,2.1l8.285,11.391A7.548,7.548,0,0,0,30.08,36.285l1.628-1.354v5.836H12.079a1.509,1.509,0,0,0-1.51,1.51v6.04a1.509,1.509,0,0,0,1.51,1.51h4.53v4.53H3.02V3.02H87.573Z" fill="#184468"/>
    </g>
  </g>
</svg>
