<svg xmlns="http://www.w3.org/2000/svg" width="193" height="193" viewBox="0 0 193 193">
  <g id="Ellipse_157" data-name="Ellipse 157" fill="#fff" stroke="#707070" stroke-width="1">
    <circle cx="96.5" cy="96.5" r="96.5" stroke="none"/>
    <circle cx="96.5" cy="96.5" r="96" fill="none"/>
  </g>
  <g id="Group_54" data-name="Group 54" transform="translate(40 44)">
    <g id="Group_53" data-name="Group 53">
      <path id="Path_306" data-name="Path 306" d="M102.227,18.859,83.953.588A2.008,2.008,0,0,0,82.533,0H22.892a6.031,6.031,0,0,0-6.024,6.024V9.853A26.569,26.569,0,0,0,0,34.558a2.008,2.008,0,0,0,2.008,2.008H26.525a2.008,2.008,0,0,0,2.008-2.008V10.041a2.008,2.008,0,0,0-2.008-2.008,26.514,26.514,0,0,0-5.641.606V6.024a2.01,2.01,0,0,1,2.008-2.008H80.525V16.266A6.031,6.031,0,0,0,86.55,22.29H98.8v74.5A2.01,2.01,0,0,1,96.791,98.8h-73.9a2.01,2.01,0,0,1-2.008-2.008v-17.2a2.008,2.008,0,0,0-4.016,0v17.2a6.031,6.031,0,0,0,6.024,6.024h73.9a6.031,6.031,0,0,0,6.024-6.024V20.279A2.008,2.008,0,0,0,102.227,18.859Zm-77.71-6.722V32.55H4.1A22.547,22.547,0,0,1,24.517,12.138ZM86.55,18.274a2.01,2.01,0,0,1-2.008-2.008V6.856l11.42,11.418Z" fill="#184468"/>
    </g>
  </g>
  <g id="Group_56" data-name="Group 56" transform="translate(56.868 114.284)">
    <g id="Group_55" data-name="Group 55">
      <path id="Path_307" data-name="Path 307" d="M87.428,350.588a2.006,2.006,0,1,0,.589,1.42A2.022,2.022,0,0,0,87.428,350.588Z" transform="translate(-84 -350)" fill="#184468"/>
    </g>
  </g>
  <g id="Group_58" data-name="Group 58" transform="translate(47.193 59.225)">
    <g id="Group_57" data-name="Group 57">
      <path id="Path_308" data-name="Path 308" d="M62.344,75.819a2.008,2.008,0,0,0-2.008,2.008v22.509H37.827a2.008,2.008,0,0,0-2.008,2.008A26.525,26.525,0,1,0,62.344,75.819Zm2.008,4.105A22.408,22.408,0,0,1,76.77,85.079L64.352,97.5Zm-2.008,44.929a22.539,22.539,0,0,1-22.42-20.5h22.42a2,2,0,0,0,1.419-.588h0L79.61,87.918a22.5,22.5,0,0,1-17.266,36.935Z" transform="translate(-35.819 -75.819)" fill="#184468"/>
    </g>
  </g>
  <g id="Group_60" data-name="Group 60" transform="translate(70.906 107.377)">
    <g id="Group_59" data-name="Group 59">
      <path id="Path_309" data-name="Path 309" d="M210.969,315.605a6.024,6.024,0,0,0-5.548,8.372l-11.569,11.569a6.014,6.014,0,0,0-5.2-.027l-7.683-7.683a6.025,6.025,0,1,0-11.079.33l-7.369,7.369a6.025,6.025,0,1,0,2.843,2.837l7.328-7.328a6,6,0,0,0,5.642-.164l7.466,7.466a6.025,6.025,0,1,0,10.876.058l11.461-11.461a6.024,6.024,0,1,0,2.834-11.339Zm-51.04,27.377a2.008,2.008,0,1,1,1.389-3.455l.023.026.03.027a2.006,2.006,0,0,1-1.442,3.4Zm15.428-15.329a2.008,2.008,0,1,1,2.008-2.008A2.01,2.01,0,0,1,175.357,327.654Zm15.865,15.32a2.008,2.008,0,1,1,2.008-2.008A2.01,2.01,0,0,1,191.222,342.974Zm19.747-19.337a2.008,2.008,0,1,1,2.008-2.008A2.01,2.01,0,0,1,210.969,323.637Z" transform="translate(-153.905 -315.605)" fill="#184468"/>
    </g>
  </g>
  <g id="Group_62" data-name="Group 62" transform="translate(105 91.191)">
    <g id="Group_61" data-name="Group 61">
      <path id="Path_310" data-name="Path 310" d="M337.918,235h-10.6a2.008,2.008,0,0,0,0,4.016h10.6a2.008,2.008,0,0,0,0-4.016Z" transform="translate(-325.311 -235)" fill="#184468"/>
    </g>
  </g>
  <g id="Group_64" data-name="Group 64" transform="translate(125 91.191)">
    <g id="Group_63" data-name="Group 63">
      <path id="Path_311" data-name="Path 311" d="M427.048,235.588a2.006,2.006,0,1,0,.589,1.42A2.022,2.022,0,0,0,427.048,235.588Z" transform="translate(-423.62 -235)" fill="#184468"/>
    </g>
  </g>
  <g id="Group_66" data-name="Group 66" transform="translate(105 71.913)">
    <g id="Group_65" data-name="Group 65">
      <path id="Path_312" data-name="Path 312" d="M351.849,139h-24.53a2.008,2.008,0,0,0,0,4.016h24.53a2.008,2.008,0,0,0,0-4.016Z" transform="translate(-325.311 -139)" fill="#184468"/>
    </g>
  </g>
  <g id="Group_68" data-name="Group 68" transform="translate(105 81.552)">
    <g id="Group_67" data-name="Group 67">
      <path id="Path_313" data-name="Path 313" d="M351.849,187h-24.53a2.008,2.008,0,0,0,0,4.016h24.53a2.008,2.008,0,0,0,0-4.016Z" transform="translate(-325.311 -187)" fill="#184468"/>
    </g>
  </g>
</svg>

