<svg xmlns="http://www.w3.org/2000/svg" xmlns:xlink="http://www.w3.org/1999/xlink" width="207" height="241" viewBox="0 0 207 241">
  <defs>
    <filter id="Rectangle_20" x="0" y="0" width="207" height="205" filterUnits="userSpaceOnUse">
      <feOffset dx="2" dy="4" input="SourceAlpha"/>
      <feGaussianBlur stdDeviation="3" result="blur"/>
      <feFlood flood-opacity="0.161"/>
      <feComposite operator="in" in2="blur"/>
      <feComposite in="SourceGraphic"/>
    </filter>
  </defs>
  <g id="Component_15_1" data-name="Component 15 – 1" transform="translate(7 5)">
    <g transform="matrix(1, 0, 0, 1, -7, -5)" filter="url(#Rectangle_20)">
      <rect id="Rectangle_20-2" data-name="Rectangle 20" width="189" height="187" rx="28" transform="translate(7 5)" fill="#fff"/>
    </g>
    <g id="truck-2" data-name="truck" transform="translate(54.5 -45.704)">
      <g id="Group_7" data-name="Group 7" transform="translate(0 112.204)">
        <path id="Path_70" data-name="Path 70" d="M459.724,395.756a6.844,6.844,0,1,0,6.844,6.844A6.852,6.852,0,0,0,459.724,395.756Zm0,8.857a2.013,2.013,0,1,1,2.013-2.013A2.015,2.015,0,0,1,459.724,404.613Z" transform="translate(-393.298 -358.451)" fill="#2d5072"/>
        <path id="Path_71" data-name="Path 71" d="M411.235,179.518H399.41a1.61,1.61,0,0,0-1.61,1.61v31.4a1.61,1.61,0,0,0,1.61,1.61h1.708a1.6,1.6,0,0,0,1.606-1.365,9.278,9.278,0,0,1,18.334,0,1.6,1.6,0,0,0,1.606,1.365h1.706a1.611,1.611,0,0,0,1.61-1.61v-15.7a1.607,1.607,0,0,0-.375-1.033L412.47,180.1A1.611,1.611,0,0,0,411.235,179.518ZM401.021,192.4v-8.052a1.61,1.61,0,0,1,1.61-1.61h7.093a1.611,1.611,0,0,1,1.237.58l6.709,8.052a1.61,1.61,0,0,1-1.237,2.641h-13.8A1.61,1.61,0,0,1,401.021,192.4Z" transform="translate(-345.464 -170.662)" fill="#2d5072"/>
        <path id="Path_72" data-name="Path 72" d="M1.61,155.683H5.734a1.6,1.6,0,0,0,1.606-1.365,8.878,8.878,0,0,1,9.167-7.846,8.878,8.878,0,0,1,9.167,7.846,1.6,1.6,0,0,0,1.606,1.365H47.5a1.611,1.611,0,0,0,1.61-1.61V113.814a1.611,1.611,0,0,0-1.61-1.61H1.61A1.61,1.61,0,0,0,0,113.814v40.258A1.61,1.61,0,0,0,1.61,155.683Z" transform="translate(0 -112.204)" fill="#2d5072"/>
        <path id="Path_73" data-name="Path 73" d="M80.284,395.756a6.844,6.844,0,1,0,6.844,6.844A6.852,6.852,0,0,0,80.284,395.756Zm0,8.857A2.013,2.013,0,1,1,82.3,402.6,2.015,2.015,0,0,1,80.284,404.613Z" transform="translate(-63.778 -358.451)" fill="#2d5072"/>
      </g>
    </g>
  </g>
</svg>
