<svg xmlns="http://www.w3.org/2000/svg" xmlns:xlink="http://www.w3.org/1999/xlink" width="207" height="241" viewBox="0 0 207 241">
  <defs>
    <filter id="Rectangle_17" x="0" y="0" width="207" height="205" filterUnits="userSpaceOnUse">
      <feOffset dx="2" dy="4" input="SourceAlpha"/>
      <feGaussianBlur stdDeviation="3" result="blur"/>
      <feFlood flood-opacity="0.161"/>
      <feComposite operator="in" in2="blur"/>
      <feComposite in="SourceGraphic"/>
    </filter>
  </defs>
  <g id="Component_12_1" data-name="Component 12 – 1" transform="translate(7 5)">
    <g transform="matrix(1, 0, 0, 1, -7, -5)" filter="url(#Rectangle_17)">
      <rect id="Rectangle_17-2" data-name="Rectangle 17" width="189" height="187" rx="28" transform="translate(7 5)" fill="#fff"/>
    </g>
    <path id="bike-2" data-name="bike" d="M72.346,113.3a12.2,12.2,0,0,0-10.03,5.266L59.14,117.2v-1.991l9.948-4.128,2.554-5.888h1.174l5.885,6.989a1.148,1.148,0,1,0,1.757-1.479l-4.639-5.51h.738a1.148,1.148,0,0,0,0-2.3H74.831l1.5-.712a1.435,1.435,0,0,0,.687-1.9l-.866-1.866a1.436,1.436,0,0,0-1.289-.831l-15.93-.144h-.013a1.436,1.436,0,0,0-1.051.457,16.512,16.512,0,0,1-9.287,4.183A13.5,13.5,0,0,0,46.6,99.31a11.708,11.708,0,0,0-8.775-3.785,15,15,0,0,0-2.144.159l-.012,0a90.254,90.254,0,0,0-9.723,2.205c-.061,0-.148.006-.255.006-.636,0-2.181-.113-2.783-1.164a1.99,1.99,0,0,1-.124-.263l2.653-.482a1.364,1.364,0,1,0-.487-2.684l-2.138.388a22.025,22.025,0,0,1,2.547-5.713,1.436,1.436,0,0,0-1.745-2.07A22.051,22.051,0,0,0,16.248,91a19.437,19.437,0,0,0-5.253,10.669,5.257,5.257,0,0,1,.74-1.091s3.919,2.558,1.707,6.261H10.847c.062.752.159,1.528.3,2.329a1.436,1.436,0,0,0,.443.813l3.206,2.945C4.253,111.518.462,118.358.462,118.358c-.791,1.052-.393,2.187.883,1.584A12.2,12.2,0,1,0,24.4,125.5a12.316,12.316,0,0,0-.092-1.474H39.219l-5.885-4.387a15.478,15.478,0,0,1-11.967-4.748c.521-.026,1.09-.043,1.695-.043,4.04,0,9.665.727,13.514,4.191a1.449,1.449,0,0,0,.158.123l13.206,8.9a1.435,1.435,0,0,0,1.817-.175l5.321-5.321,3.172,1.359a12.2,12.2,0,1,0,12.1-10.627ZM59.14,110.34l8.991-4.263-1.215,2.8L59.14,112.1ZM12.2,131.96a6.46,6.46,0,0,1,0-12.919c.15,0,.3.007.447.017l-2.672,5.509,5.166,2.506,2.47-5.094A6.455,6.455,0,0,1,12.2,131.96Zm60.145,0a6.468,6.468,0,0,1-6.4-5.594l4.887,2.093,2.261-5.278L67.8,120.914a6.458,6.458,0,1,1,4.544,11.046Z" transform="translate(52.324 -18.318)" fill="#2d5072"/>
  </g>
</svg>
